Oswald--600.ufo
<glyph name="one" format="1">
  <advance width="1059"/>
  <unicode hex="0031"/>
  <outline>
    <contour>
      <point x="434" y="0" type="line"/>
      <point x="751" y="0" type="line"/>
      <point x="751" y="1658" type="line"/>
      <point x="506" y="1658" type="line"/>
      <point x="442" y="1586"/>
      <point x="257" y="1505"/>
      <point x="187" y="1477" type="curve"/>
      <point x="187" y="1241" type="line"/>
      <point x="187" y="1241"/>
      <point x="434" y="1326"/>
      <point x="434" y="1326" type="curve"/>
    </contour>
  </outline>
</glyph>
<glyph name="less" format="1">
  <advance width="804"/>
  <unicode hex="003C"/>
  <outline>
    <contour>
      <point x="686" y="164" type="line"/>
      <point x="686" y="441" type="line"/>
      <point x="287" y="727" type="line"/>
      <point x="686" y="1011" type="line"/>
      <point x="686" y="1290" type="line"/>
      <point x="63" y="854" type="line"/>
      <point x="63" y="598" type="line"/>
    </contour>
  </outline>
</glyph>
<glyph name="A" format="1">
  <advance width="1099"/>
  <unicode hex="0041"/>
  <outline>
    <contour>
      <point x="41" y="0" type="line"/>
      <point x="360" y="0" type="line"/>
      <point x="421" y="367" type="line"/>
      <point x="684" y="367" type="line"/>
      <point x="745" y="0" type="line"/>
      <point x="1058" y="0" type="line"/>
      <point x="735" y="1658" type="line"/>
      <point x="365" y="1658" type="line"/>
    </contour>
    <contour>
      <point x="453" y="576" type="line"/>
      <point x="551" y="1236" type="line"/>
      <point x="650" y="576" type="line"/>
    </contour>
  </outline>
</glyph>
<glyph name="T" format="1">
  <advance width="892"/>
  <unicode hex="0054"/>
  <outline>
    <contour>
      <point x="280" y="0" type="line"/>
      <point x="617" y="0" type="line"/>
      <point x="617" y="1409" type="line"/>
      <point x="878" y="1409" type="line"/>
      <point x="878" y="1658" type="line"/>
      <point x="15" y="1658" type="line"/>
      <point x="15" y="1409" type="line"/>
      <point x="280" y="1409" type="line"/>
    </contour>
  </outline>
</glyph>
<glyph name="V" format="1">
  <advance width="1069"/>
  <unicode hex="0056"/>
  <outline>
    <contour>
      <point x="363" y="0" type="line"/>
      <point x="706" y="0" type="line"/>
      <point x="1025" y="1658" type="line"/>
      <point x="719" y="1658" type="line"/>
      <point x="535" y="524" type="line"/>
      <point x="339" y="1658" type="line"/>
      <point x="46" y="1658" type="line"/>
    </contour>
  </outline>
</glyph>
<glyph name="X" format="1">
  <advance width="1040"/>
  <unicode hex="0058"/>
  <outline>
    <contour>
      <point x="17" y="0" type="line"/>
      <point x="303" y="0" type="line"/>
      <point x="493" y="522" type="line"/>
      <point x="708" y="0" type="line"/>
      <point x="1023" y="0" type="line"/>
      <point x="692" y="812" type="line"/>
      <point x="996" y="1658" type="line"/>
      <point x="707" y="1658" type="line"/>
      <point x="543" y="1180" type="line"/>
      <point x="347" y="1658" type="line"/>
      <point x="29" y="1658" type="line"/>
      <point x="345" y="887" type="line"/>
    </contour>
  </outline>
</glyph>
<glyph name="k" format="1">
  <advance width="1051"/>
  <unicode hex="006B"/>
  <outline>
    <contour>
      <point x="108" y="1" type="line"/>
      <point x="415" y="1" type="line"/>
      <point x="415" y="452" type="line"/>
      <point x="504" y="571" type="line"/>
      <point x="712" y="0" type="line"/>
      <point x="1044" y="0" type="line"/>
      <point x="746" y="704" type="line"/>
      <point x="1048" y="1184" type="line"/>
      <point x="705" y="1184" type="line"/>
      <point x="415" y="727" type="line"/>
      <point x="415" y="1659" type="line"/>
      <point x="108" y="1659" type="line"/>
    </contour>
  </outline>
</glyph>
<glyph name="n" format="1">
  <advance width="1008"/>
  <unicode hex="006E"/>
  <outline>
    <contour>
      <point x="106" y="0" type="line"/>
      <point x="415" y="0" type="line"/>
      <point x="415" y="931" type="line"/>
      <point x="456" y="960"/>
      <point x="496" y="978"/>
      <point x="529" y="978" type="curve" smooth="yes"/>
      <point x="587" y="979"/>
      <point x="600" y="942"/>
      <point x="600" y="882" type="curve" smooth="yes"/>
      <point x="600" y="0" type="line"/>
      <point x="910" y="0" type="line"/>
      <point x="910" y="937" type="line" smooth="yes"/>
      <point x="910" y="1079"/>
      <point x="848" y="1203"/>
      <point x="703" y="1203" type="curve" smooth="yes"/>
      <point x="595" y="1203"/>
      <point x="501" y="1149"/>
      <point x="415" y="1067" type="curve"/>
      <point x="415" y="1184" type="line"/>
      <point x="106" y="1184" type="line"/>
    </contour>
  </outline>
</glyph>
<glyph name="z" format="1">
  <advance width="780"/>
  <unicode hex="007A"/>
  <outline>
    <contour>
      <point x="69" y="0" type="line"/>
      <point x="727" y="0" type="line"/>
      <point x="727" y="228" type="line"/>
      <point x="394" y="228" type="line"/>
      <point x="725" y="1000" type="line"/>
      <point x="725" y="1184" type="line"/>
      <point x="97" y="1184" type="line"/>
      <point x="97" y="957" type="line"/>
      <point x="402" y="957" type="line"/>
      <point x="69" y="201" type="line"/>
    </contour>
  </outline>
</glyph>
<glyph name="macron" format="1">
  <advance width="422"/>
  <unicode hex="00AF"/>
  <outline>
    <contour>
      <point x="-22" y="1505" type="line"/>
      <point x="466" y="1505" type="line"/>
      <point x="466" y="1658" type="line"/>
      <point x="-22" y="1658" type="line"/>
    </contour>
  </outline>
</glyph>
<glyph name="threesuperior" format="1">
  <advance width="889"/>
  <unicode hex="00B3"/>
  <outline>
    <contour>
      <point x="476" y="602" type="curve" smooth="yes"/>
      <point x="705" y="602"/>
      <point x="801" y="752"/>
      <point x="801" y="972" type="curve" smooth="yes"/>
      <point x="801" y="1145"/>
      <point x="728" y="1216"/>
      <point x="654" y="1245" type="curve"/>
      <point x="728" y="1264"/>
      <point x="801" y="1371"/>
      <point x="801" y="1509" type="curve" smooth="yes"/>
      <point x="801" y="1729"/>
      <point x="679" y="1838"/>
      <point x="469" y="1838" type="curve" smooth="yes"/>
      <point x="264" y="1838"/>
      <point x="142" y="1713"/>
      <point x="142" y="1504" type="curve" smooth="yes"/>
      <point x="142" y="1412" type="line"/>
      <point x="381" y="1412" type="line"/>
      <point x="381" y="1503" type="line" smooth="yes"/>
      <point x="381" y="1591"/>
      <point x="407" y="1647"/>
      <point x="472" y="1647" type="curve" smooth="yes"/>
      <point x="537" y="1647"/>
      <point x="569" y="1598"/>
      <point x="569" y="1503" type="curve" smooth="yes"/>
      <point x="569" y="1386"/>
      <point x="536" y="1308"/>
      <point x="434" y="1308" type="curve" smooth="yes"/>
      <point x="372" y="1308" type="line"/>
      <point x="372" y="1146" type="line"/>
      <point x="439" y="1146" type="line" smooth="yes"/>
      <point x="537" y="1146"/>
      <point x="569" y="1072"/>
      <point x="569" y="956" type="curve" smooth="yes"/>
      <point x="569" y="857"/>
      <point x="544" y="805"/>
      <point x="475" y="805" type="curve" smooth="yes"/>
      <point x="410" y="805"/>
      <point x="381" y="854"/>
      <point x="381" y="977" type="curve" smooth="yes"/>
      <point x="381" y="1041" type="line"/>
      <point x="142" y="1041" type="line"/>
      <point x="142" y="982" type="line" smooth="yes"/>
      <point x="142" y="749"/>
      <point x="219" y="602"/>
    </contour>
  </outline>
</glyph>
<glyph name="onequarter" format="1">
  <advance width="1472"/>
  <unicode hex="00BC"/>
  <outline>
    <contour>
      <point x="1085" y="1" type="line"/>
      <point x="1256" y="1" type="line"/>
      <point x="1256" y="232" type="line"/>
      <point x="1366" y="232" type="line"/>
      <point x="1366" y="375" type="line"/>
      <point x="1256" y="375" type="line"/>
      <point x="1256" y="866" type="line"/>
      <point x="1102" y="866" type="line"/>
      <point x="806" y="369" type="line"/>
      <point x="806" y="232" type="line"/>
      <point x="1085" y="232" type="line"/>
    </contour>
    <contour>
      <point x="229" y="828" type="line"/>
      <point x="422" y="828" type="line"/>
      <point x="422" y="1658" type="line"/>
      <point x="326" y="1658" type="line"/>
      <point x="276" y="1596"/>
      <point x="209" y="1541"/>
      <point x="109" y="1489" type="curve"/>
      <point x="109" y="1343" type="line"/>
      <point x="229" y="1385" type="line"/>
    </contour>
    <contour>
      <point x="265" y="0" type="line"/>
      <point x="439" y="0" type="line"/>
      <point x="1147" y="1658" type="line"/>
      <point x="972" y="1658" type="line"/>
    </contour>
    <contour>
      <point x="934" y="375" type="line"/>
      <point x="1085" y="644" type="line"/>
      <point x="1085" y="375" type="line"/>
    </contour>
  </outline>
</glyph>
<glyph name="ae" format="1">
  <advance width="1365"/>
  <unicode hex="00E6"/>
  <outline>
    <contour>
      <point x="356" y="-22" type="curve" smooth="yes"/>
      <point x="494" y="-28"/>
      <point x="613" y="53"/>
      <point x="668" y="176" type="curve"/>
      <point x="693" y="51"/>
      <point x="819" y="-22"/>
      <point x="939" y="-22" type="curve" smooth="yes"/>
      <point x="1166" y="-22"/>
      <point x="1282" y="108"/>
      <point x="1282" y="332" type="curve" smooth="yes"/>
      <point x="1282" y="414" type="line"/>
      <point x="992" y="414" type="line"/>
      <point x="992" y="356" type="line" smooth="yes"/>
      <point x="992" y="274"/>
      <point x="989" y="204"/>
      <point x="921" y="204" type="curve" smooth="yes"/>
      <point x="837" y="204"/>
      <point x="842" y="325"/>
      <point x="842" y="432" type="curve" smooth="yes"/>
      <point x="842" y="589" type="line"/>
      <point x="860" y="592"/>
      <point x="939" y="606"/>
      <point x="958" y="611" type="curve" smooth="yes"/>
      <point x="1120" y="646"/>
      <point x="1288" y="704"/>
      <point x="1288" y="893" type="curve" smooth="yes"/>
      <point x="1288" y="1068"/>
      <point x="1175" y="1224"/>
      <point x="941" y="1224" type="curve" smooth="yes"/>
      <point x="818" y="1224"/>
      <point x="721" y="1158"/>
      <point x="685" y="1073" type="curve"/>
      <point x="660" y="1163"/>
      <point x="565" y="1225"/>
      <point x="442" y="1225" type="curve" smooth="yes"/>
      <point x="193" y="1225"/>
      <point x="69" y="1066"/>
      <point x="71" y="806" type="curve"/>
      <point x="372" y="806" type="line"/>
      <point x="372" y="922"/>
      <point x="400" y="968"/>
      <point x="460" y="968" type="curve" smooth="yes"/>
      <point x="521" y="968"/>
      <point x="545" y="923"/>
      <point x="545" y="837" type="curve" smooth="yes"/>
      <point x="545" y="686" type="line"/>
      <point x="520" y="681"/>
      <point x="419" y="659"/>
      <point x="389" y="651" type="curve" smooth="yes"/>
      <point x="222" y="610"/>
      <point x="68" y="519"/>
      <point x="68" y="273" type="curve" smooth="yes"/>
      <point x="68" y="95"/>
      <point x="198" y="-17"/>
    </contour>
    <contour>
      <point x="437" y="195" type="curve" smooth="yes"/>
      <point x="377" y="195"/>
      <point x="349" y="260"/>
      <point x="349" y="317" type="curve" smooth="yes"/>
      <point x="349" y="382"/>
      <point x="388" y="466"/>
      <point x="476" y="515" type="curve" smooth="yes"/>
      <point x="497" y="526"/>
      <point x="520" y="535"/>
      <point x="545" y="542" type="curve"/>
      <point x="546" y="369" type="line" smooth="yes"/>
      <point x="546" y="245"/>
      <point x="496" y="195"/>
    </contour>
    <contour>
      <point x="841" y="734" type="curve"/>
      <point x="841" y="863" type="line" smooth="yes"/>
      <point x="841" y="950"/>
      <point x="875" y="1012"/>
      <point x="938" y="1012" type="curve" smooth="yes"/>
      <point x="995" y="1012"/>
      <point x="1024" y="964"/>
      <point x="1024" y="888" type="curve" smooth="yes"/>
      <point x="1024" y="813"/>
      <point x="992" y="785"/>
      <point x="940" y="765" type="curve" smooth="yes"/>
      <point x="927" y="752"/>
      <point x="863" y="737"/>
    </contour>
  </outline>
</glyph>
<glyph name="hungarumlaut" format="1">
  <advance width="821"/>
  <unicode hex="02DD"/>
  <outline>
    <contour>
      <point x="124" y="1238" type="line"/>
      <point x="281" y="1238" type="line"/>
      <point x="485" y="1658" type="line"/>
      <point x="234" y="1658" type="line"/>
    </contour>
    <contour>
      <point x="463" y="1238" type="line"/>
      <point x="623" y="1238" type="line"/>
      <point x="869" y="1658" type="line"/>
      <point x="591" y="1658" type="line"/>
    </contour>
  </outline>
</glyph>
<glyph name="uni0308" format="1">
  <advance width="859"/>
  <unicode hex="0308"/>
  <outline>
    <contour>
      <point x="89" y="1372" type="line"/>
      <point x="350" y="1372" type="line"/>
      <point x="350" y="1658" type="line"/>
      <point x="89" y="1658" type="line"/>
    </contour>
    <contour>
      <point x="509" y="1372" type="line"/>
      <point x="770" y="1372" type="line"/>
      <point x="770" y="1658" type="line"/>
      <point x="509" y="1658" type="line"/>
    </contour>
  </outline>
</glyph>
<glyph name="afii10145" format="1">
  <advance width="1202"/>
  <unicode hex="040F"/>
  <outline>
    <contour>
      <point x="483" y="-345" type="line"/>
      <point x="727" y="-345" type="line"/>
      <point x="742" y="0" type="line"/>
      <point x="1080" y="0" type="line"/>
      <point x="1080" y="1658" type="line"/>
      <point x="742" y="1658" type="line"/>
      <point x="742" y="253" type="line"/>
      <point x="460" y="253" type="line"/>
      <point x="460" y="1658" type="line"/>
      <point x="123" y="1658" type="line"/>
      <point x="123" y="0" type="line"/>
      <point x="468" y="0" type="line"/>
    </contour>
  </outline>
</glyph>
<glyph name="afii10025" format="1">
  <advance width="1054"/>
  <unicode hex="0417"/>
  <outline>
    <contour>
      <point x="531" y="-27" type="curve" smooth="yes"/>
      <point x="854" y="-27"/>
      <point x="975" y="181"/>
      <point x="975" y="483" type="curve" smooth="yes"/>
      <point x="975" y="712"/>
      <point x="890" y="825"/>
      <point x="763" y="871" type="curve"/>
      <point x="884" y="905"/>
      <point x="975" y="1043"/>
      <point x="975" y="1235" type="curve" smooth="yes"/>
      <point x="975" y="1525"/>
      <point x="801" y="1682"/>
      <point x="518" y="1682" type="curve" smooth="yes"/>
      <point x="238" y="1682"/>
      <point x="60" y="1517"/>
      <point x="60" y="1226" type="curve" smooth="yes"/>
      <point x="60" y="1136" type="line"/>
      <point x="376" y="1136" type="line"/>
      <point x="376" y="1145"/>
      <point x="377" y="1210"/>
      <point x="377" y="1218" type="curve" smooth="yes"/>
      <point x="382" y="1340"/>
      <point x="416" y="1427"/>
      <point x="520" y="1427" type="curve" smooth="yes"/>
      <point x="623" y="1427"/>
      <point x="662" y="1351"/>
      <point x="662" y="1219" type="curve" smooth="yes"/>
      <point x="662" y="1056"/>
      <point x="619" y="968"/>
      <point x="444" y="962" type="curve" smooth="yes"/>
      <point x="437" y="961"/>
      <point x="378" y="961"/>
      <point x="370" y="961" type="curve"/>
      <point x="370" y="744" type="line"/>
      <point x="379" y="744"/>
      <point x="442" y="743"/>
      <point x="450" y="743" type="curve" smooth="yes"/>
      <point x="622" y="735"/>
      <point x="662" y="640"/>
      <point x="662" y="476" type="curve" smooth="yes"/>
      <point x="662" y="326"/>
      <point x="646" y="238"/>
      <point x="535" y="238" type="curve" smooth="yes"/>
      <point x="431" y="238"/>
      <point x="404" y="311"/>
      <point x="401" y="465" type="curve" smooth="yes"/>
      <point x="401" y="474"/>
      <point x="400" y="519"/>
      <point x="400" y="529" type="curve"/>
      <point x="84" y="529" type="line"/>
      <point x="84" y="470" type="line" smooth="yes"/>
      <point x="84" y="170"/>
      <point x="203" y="-27"/>
    </contour>
  </outline>
</glyph>
<glyph name="afii10038" format="1">
  <advance width="1509"/>
  <unicode hex="0424"/>
  <outline>
    <contour>
      <point x="610" y="-61" type="line"/>
      <point x="895" y="-61" type="line"/>
      <point x="895" y="192" type="line"/>
      <point x="895" y="192"/>
      <point x="951" y="190"/>
      <point x="951" y="190" type="curve"/>
      <point x="1230" y="166"/>
      <point x="1414" y="329"/>
      <point x="1414" y="605" type="curve" smooth="yes"/>
      <point x="1414" y="1076" type="line" smooth="yes"/>
      <point x="1414" y="1353"/>
      <point x="1230" y="1511"/>
      <point x="943" y="1491" type="curve"/>
      <point x="943" y="1491"/>
      <point x="895" y="1490"/>
      <point x="895" y="1490" type="curve"/>
      <point x="895" y="1770" type="line"/>
      <point x="610" y="1770" type="line"/>
      <point x="610" y="1489" type="line"/>
      <point x="558" y="1491" type="line"/>
      <point x="280" y="1511"/>
      <point x="95" y="1353"/>
      <point x="95" y="1077" type="curve" smooth="yes"/>
      <point x="95" y="605" type="line" smooth="yes"/>
      <point x="95" y="328"/>
      <point x="279" y="166"/>
      <point x="566" y="190" type="curve"/>
      <point x="610" y="192" type="line"/>
    </contour>
    <contour>
      <point x="581" y="397" type="curve" smooth="yes"/>
      <point x="430" y="392"/>
      <point x="394" y="465"/>
      <point x="394" y="602" type="curve" smooth="yes"/>
      <point x="394" y="1080" type="line" smooth="yes"/>
      <point x="394" y="1217"/>
      <point x="430" y="1294"/>
      <point x="579" y="1292" type="curve" smooth="yes"/>
      <point x="585" y="1292"/>
      <point x="604" y="1291"/>
      <point x="610" y="1291" type="curve"/>
      <point x="610" y="399" type="line"/>
      <point x="604" y="398"/>
      <point x="586" y="397"/>
    </contour>
    <contour>
      <point x="930" y="398" type="curve" smooth="yes"/>
      <point x="924" y="398"/>
      <point x="902" y="399"/>
      <point x="895" y="399" type="curve"/>
      <point x="895" y="1291" type="line"/>
      <point x="901" y="1291"/>
      <point x="922" y="1292"/>
      <point x="927" y="1292" type="curve" smooth="yes"/>
      <point x="1079" y="1293"/>
      <point x="1115" y="1216"/>
      <point x="1115" y="1079" type="curve" smooth="yes"/>
      <point x="1115" y="601" type="line" smooth="yes"/>
      <point x="1115" y="463"/>
      <point x="1077" y="393"/>
    </contour>
  </outline>
</glyph>
<glyph name="afii10067" format="1">
  <advance width="989"/>
  <unicode hex="0432"/>
  <outline>
    <contour>
      <point x="106" y="0" type="line"/>
      <point x="496" y="0" type="line" smooth="yes"/>
      <point x="824" y="0"/>
      <point x="930" y="117"/>
      <point x="930" y="344" type="curve" smooth="yes"/>
      <point x="930" y="492"/>
      <point x="890" y="605"/>
      <point x="725" y="644" type="curve"/>
      <point x="841" y="675"/>
      <point x="901" y="746"/>
      <point x="900" y="892" type="curve" smooth="yes"/>
      <point x="899" y="1060"/>
      <point x="833" y="1184"/>
      <point x="505" y="1184" type="curve" smooth="yes"/>
      <point x="106" y="1184" type="line"/>
    </contour>
    <contour>
      <point x="413" y="185" type="line"/>
      <point x="413" y="538" type="line"/>
      <point x="472" y="538" type="line" smooth="yes"/>
      <point x="563" y="538"/>
      <point x="628" y="535"/>
      <point x="628" y="353" type="curve" smooth="yes"/>
      <point x="628" y="193"/>
      <point x="555" y="185"/>
      <point x="468" y="185" type="curve" smooth="yes"/>
    </contour>
    <contour>
      <point x="413" y="717" type="line"/>
      <point x="413" y="1009" type="line"/>
      <point x="475" y="1009" type="line" smooth="yes"/>
      <point x="578" y="1009"/>
      <point x="610" y="958"/>
      <point x="610" y="863" type="curve" smooth="yes"/>
      <point x="610" y="765"/>
      <point x="578" y="717"/>
      <point x="497" y="717" type="curve" smooth="yes"/>
    </contour>
  </outline>
</glyph>
<glyph name="afii10082" format="1">
  <advance width="1002"/>
  <unicode hex="0440"/>
  <outline>
    <contour>
      <point x="106" y="-390" type="line"/>
      <point x="415" y="-390" type="line"/>
      <point x="415" y="88" type="line"/>
      <point x="486" y="24"/>
      <point x="566" y="-20"/>
      <point x="650" y="-20" type="curve" smooth="yes"/>
      <point x="837" y="-20"/>
      <point x="919" y="154"/>
      <point x="919" y="378" type="curve" smooth="yes"/>
      <point x="919" y="831" type="line" smooth="yes"/>
      <point x="919" y="998"/>
      <point x="861" y="1199"/>
      <point x="662" y="1203" type="curve" smooth="yes"/>
      <point x="574" y="1205"/>
      <point x="489" y="1165"/>
      <point x="415" y="1095" type="curve"/>
      <point x="415" y="1184" type="line"/>
      <point x="106" y="1184" type="line"/>
    </contour>
    <contour>
      <point x="520" y="190" type="curve" smooth="yes"/>
      <point x="481" y="190"/>
      <point x="446" y="204"/>
      <point x="415" y="223" type="curve"/>
      <point x="415" y="962" type="line"/>
      <point x="447" y="985"/>
      <point x="482" y="1003"/>
      <point x="515" y="1004" type="curve" smooth="yes"/>
      <point x="589" y="1008"/>
      <point x="609" y="931"/>
      <point x="609" y="850" type="curve" smooth="yes"/>
      <point x="609" y="365" type="line" smooth="yes"/>
      <point x="609" y="271"/>
      <point x="593" y="189"/>
    </contour>
  </outline>
</glyph>
<glyph name="afii10108" format="1">
  <advance width="1034"/>
  <unicode hex="045B"/>
  <outline>
    <contour>
      <point x="119" y="0" type="line"/>
      <point x="428" y="0" type="line" smooth="yes"/>
      <point x="428" y="754" type="line"/>
      <point x="447" y="762"/>
      <point x="511" y="788"/>
      <point x="546" y="788" type="curve" smooth="yes"/>
      <point x="611" y="788"/>
      <point x="626" y="742"/>
      <point x="626" y="668" type="curve" smooth="yes"/>
      <point x="626" y="0" type="line"/>
      <point x="935" y="0" type="line"/>
      <point x="935" y="676" type="line" smooth="yes"/>
      <point x="935" y="833"/>
      <point x="887" y="995"/>
      <point x="680" y="995" type="curve" smooth="yes"/>
      <point x="577" y="995"/>
      <point x="482" y="948"/>
      <point x="428" y="928" type="curve"/>
      <point x="428" y="1658" type="line"/>
      <point x="119" y="1658" type="line"/>
    </contour>
    <contour>
      <point x="-18" y="1226" type="line"/>
      <point x="698" y="1226" type="line"/>
      <point x="698" y="1386" type="line"/>
      <point x="-18" y="1386" type="line"/>
    </contour>
  </outline>
</glyph>
<glyph name="uni0490" format="1">
  <advance width="897"/>
  <unicode hex="0490"/>
  <outline>
    <contour>
      <point x="128" y="0" type="line"/>
      <point x="466" y="0" type="line"/>
      <point x="466" y="1409" type="line"/>
      <point x="861" y="1409" type="line"/>
      <point x="861" y="1918" type="line"/>
      <point x="661" y="1918" type="line"/>
      <point x="661" y="1658" type="line"/>
      <point x="128" y="1658" type="line"/>
    </contour>
  </outline>
</glyph>
<glyph name="quotedblright" format="1">
  <advance width="970"/>
  <unicode hex="201D"/>
  <outline>
    <contour>
      <point x="197" y="1080" type="line"/>
      <point x="380" y="1080"/>
      <point x="432" y="1203"/>
      <point x="439" y="1436" type="curve" smooth="yes"/>
      <point x="441" y="1473"/>
      <point x="441" y="1610"/>
      <point x="441" y="1658" type="curve"/>
      <point x="155" y="1658" type="line"/>
      <point x="155" y="1379" type="line"/>
      <point x="291" y="1379" type="line"/>
      <point x="291" y="1256"/>
      <point x="270" y="1181"/>
      <point x="169" y="1181" type="curve"/>
    </contour>
    <contour>
      <point x="612" y="1080" type="line"/>
      <point x="795" y="1080"/>
      <point x="848" y="1203"/>
      <point x="854" y="1436" type="curve" smooth="yes"/>
      <point x="856" y="1473"/>
      <point x="856" y="1610"/>
      <point x="856" y="1658" type="curve"/>
      <point x="570" y="1658" type="line"/>
      <point x="570" y="1379" type="line"/>
      <point x="706" y="1379" type="line"/>
      <point x="706" y="1256"/>
      <point x="685" y="1181"/>
      <point x="584" y="1181" type="curve"/>
    </contour>
  </outline>
</glyph>
<glyph name="dagger" format="1">
  <advance width="827"/>
  <unicode hex="2020"/>
  <outline>
    <contour>
      <point x="286" y="0" type="line"/>
      <point x="546" y="0" type="line"/>
      <point x="546" y="1033" type="line"/>
      <point x="755" y="1033" type="line"/>
      <point x="755" y="1230" type="line"/>
      <point x="546" y="1230" type="line"/>
      <point x="546" y="1655" type="line"/>
      <point x="286" y="1655" type="line"/>
      <point x="286" y="1230" type="line"/>
      <point x="73" y="1230" type="line"/>
      <point x="73" y="1033" type="line"/>
      <point x="286" y="1033" type="line"/>
    </contour>
  </outline>
</glyph>
<glyph name="guilsinglleft" format="1">
  <advance width="571"/>
  <unicode hex="2039"/>
  <outline>
    <contour>
      <point x="489" y="46" type="line"/>
      <point x="489" y="363" type="line"/>
      <point x="265" y="585" type="line"/>
      <point x="489" y="804" type="line"/>
      <point x="489" y="1121" type="line"/>
      <point x="68" y="663" type="line"/>
      <point x="68" y="503" type="line"/>
    </contour>
  </outline>
</glyph>
<glyph name="guilsinglright" format="1">
  <advance width="570"/>
  <unicode hex="203A"/>
  <outline>
    <contour>
      <point x="91" y="101" type="line"/>
      <point x="512" y="580" type="line"/>
      <point x="512" y="697" type="line"/>
      <point x="91" y="1176" type="line"/>
      <point x="91" y="859" type="line"/>
      <point x="320" y="639" type="line"/>
      <point x="91" y="417" type="line"/>
    </contour>
  </outline>
</glyph>
<glyph name="afii61352" format="1">
  <advance width="2054"/>
  <unicode hex="2116"/>
  <outline>
    <contour>
      <point x="113" y="0" type="line"/>
      <point x="399" y="0" type="line"/>
      <point x="399" y="938" type="line"/>
      <point x="763" y="0" type="line"/>
      <point x="995" y="0" type="line"/>
      <point x="995" y="1658" type="line"/>
      <point x="718" y="1658" type="line"/>
      <point x="718" y="772" type="line"/>
      <point x="353" y="1658" type="line"/>
      <point x="113" y="1658" type="line"/>
    </contour>
    <contour>
      <point x="1568" y="192" type="curve" smooth="yes"/>
      <point x="1490" y="192"/>
      <point x="1466" y="246"/>
      <point x="1466" y="365" type="curve" smooth="yes"/>
      <point x="1466" y="819" type="line" smooth="yes"/>
      <point x="1466" y="938"/>
      <point x="1490" y="992"/>
      <point x="1568" y="992" type="curve" smooth="yes"/>
      <point x="1648" y="992"/>
      <point x="1672" y="940"/>
      <point x="1672" y="819" type="curve" smooth="yes"/>
      <point x="1672" y="365" type="line" smooth="yes"/>
      <point x="1672" y="244"/>
      <point x="1648" y="192"/>
    </contour>
    <contour>
      <point x="1567" y="-22" type="curve" smooth="yes"/>
      <point x="1810" y="-22"/>
      <point x="1969" y="102"/>
      <point x="1969" y="369" type="curve" smooth="yes"/>
      <point x="1969" y="815" type="line" smooth="yes"/>
      <point x="1969" y="1082"/>
      <point x="1810" y="1206"/>
      <point x="1567" y="1206" type="curve" smooth="yes"/>
      <point x="1324" y="1206"/>
      <point x="1169" y="1081"/>
      <point x="1169" y="815" type="curve" smooth="yes"/>
      <point x="1169" y="369" type="line" smooth="yes"/>
      <point x="1169" y="103"/>
      <point x="1324" y="-22"/>
    </contour>
  </outline>
</glyph>
<glyph name="uniFB03" format="1">
  <advance width="1615"/>
  <unicode hex="FB03"/>
  <outline>
    <contour>
      <point x="1225" y="1378" type="line"/>
      <point x="1515" y="1378" type="line"/>
      <point x="1515" y="1613" type="line"/>
      <point x="1225" y="1613" type="line"/>
    </contour>
    <contour>
      <point x="147" y="0" type="line"/>
      <point x="456" y="0" type="line"/>
      <point x="456" y="971" type="line"/>
      <point x="677" y="971" type="line"/>
      <point x="677" y="0" type="line"/>
      <point x="986" y="0" type="line"/>
      <point x="986" y="971" type="line"/>
      <point x="1205" y="971" type="line"/>
      <point x="1205" y="0" type="line"/>
      <point x="1514" y="0" type="line"/>
      <point x="1514" y="1184" type="line"/>
      <point x="986" y="1184" type="line"/>
      <point x="986" y="1276" type="line" smooth="yes"/>
      <point x="986" y="1345"/>
      <point x="1006" y="1381"/>
      <point x="1062" y="1381" type="curve" smooth="yes"/>
      <point x="1083" y="1381"/>
      <point x="1110" y="1375"/>
      <point x="1130" y="1372" type="curve"/>
      <point x="1130" y="1602" type="line"/>
      <point x="1069" y="1609"/>
      <point x="1040" y="1613"/>
      <point x="987" y="1613" type="curve" smooth="yes"/>
      <point x="714" y="1613"/>
      <point x="677" y="1474"/>
      <point x="677" y="1258" type="curve" smooth="yes"/>
      <point x="677" y="1184" type="line"/>
      <point x="456" y="1184" type="line"/>
      <point x="456" y="1276" type="line" smooth="yes"/>
      <point x="456" y="1345"/>
      <point x="475" y="1381"/>
      <point x="530" y="1381" type="curve" smooth="yes"/>
      <point x="550" y="1381"/>
      <point x="576" y="1375"/>
      <point x="597" y="1372" type="curve"/>
      <point x="597" y="1602" type="line"/>
      <point x="536" y="1609"/>
      <point x="509" y="1613"/>
      <point x="457" y="1613" type="curve" smooth="yes"/>
      <point x="184" y="1613"/>
      <point x="147" y="1474"/>
      <point x="147" y="1258" type="curve" smooth="yes"/>
      <point x="147" y="1184" type="line"/>
      <point x="27" y="1184" type="line"/>
      <point x="27" y="971" type="line"/>
      <point x="147" y="971" type="line"/>
    </contour>
  </outline>
</glyph>
